<?xml version="1.0" ?><!DOCTYPE svg  PUBLIC '-//W3C//DTD SVG 1.0//EN'  'http://www.w3.org/TR/2001/REC-SVG-20010904/DTD/svg10.dtd'><svg enable-background="new 0 0 512 512" height="512px" id="Layer_1" version="1.0" viewBox="0 0 512 512" width="512px" xml:space="preserve" xmlns="http://www.w3.org/2000/svg" xmlns:xlink="http://www.w3.org/1999/xlink"><g><path d="M256,470c-57.2,0-110.9-22.3-151.3-62.7C64.3,366.9,42,313.2,42,256c0-57.2,22.3-110.9,62.7-151.3   C145.1,64.3,198.8,42,256,42c57.2,0,110.9,22.3,151.3,62.7C447.7,145.1,470,198.8,470,256c0,57.2-22.3,110.9-62.7,151.3   S313.2,470,256,470z M256,102c-84.9,0-154,69.1-154,154s69.1,154,154,154s154-69.1,154-154S340.9,102,256,102z"/></g><polygon points="360,226 286,226 286,152 226,152 226,226 152,226 152,286 226,286 226,360 286,360 286,286 360,286 "/></svg>